<?xml version="1.0" encoding="UTF-8" standalone="no"?>
<!DOCTYPE svg PUBLIC "-//W3C//DTD SVG 1.1//EN" "http://www.w3.org/Graphics/SVG/1.1/DTD/svg11.dtd">
<!-- Created with Vectornator (http://vectornator.io/) -->
<svg height="1024.0pt" stroke-miterlimit="10" style="fill-rule:nonzero;clip-rule:evenodd;stroke-linecap:round;stroke-linejoin:round;" version="1.1" viewBox="0 0 1024 1024" width="1024.0pt" xml:space="preserve" xmlns="http://www.w3.org/2000/svg" xmlns:xlink="http://www.w3.org/1999/xlink">
<defs/>
<clipPath id="ArtboardFrame">
<rect height="1024" width="1024" x="0" y="0"/>
</clipPath>
<g clip-path="url(#ArtboardFrame)" id="Ohne-Titel">
<g opacity="1">
<path d="M571.87 753.28C607.45 763.08 644.38 774.27 678.87 784.6C706.41 792.86 733.51 796.93 758.77 781.25C770.93 773.7 781.09 764.2 791.36 753.86C831.647 713.347 863.827 680.93 887.9 656.61C893.38 651.07 898.76 645.32 902.74 639.72C910.747 628.467 915.837 615.8 918.01 601.72C918.83 596.393 919.307 590.153 919.44 583C920.1 546.14 919.85 509.42 920.33 473.25C921.12 413.91 920.8 344.53 921.14 299.45C921.22 288.93 920.71 281.68 919.61 277.7C914.65 259.77 900.89 249.67 883.22 246.04C871.26 243.587 859.287 241.36 847.3 239.36C847.099 239.326 846.92 239.213 846.804 239.047C846.687 238.882 846.643 238.678 846.68 238.48C848.52 228.42 849.4 218.77 849.32 209.53C849.233 199.99 847.373 191.03 843.74 182.65C837.073 167.283 825.183 157.11 808.07 152.13C798.057 149.217 787.613 146.743 776.74 144.71C695.38 129.5 603.82 115.51 523.95 103.11C505.45 100.237 490.737 98.2767 479.81 97.23C472.163 96.4967 467.14 96.0867 464.74 96C420.28 94.41 388.84 137.14 377.26 174.81C376.75 176.48 375.74 178.21 374.34 179.08C318.953 213.7 277.777 239.61 250.81 256.81C244.063 261.117 238.877 264.767 235.25 267.76C219.87 280.447 209.333 296.74 203.64 316.64C199.69 330.45 199.09 344.58 199.06 358.75C198.953 421.243 198.937 457.493 199.01 467.5C199.057 473.533 198.17 479.227 196.35 484.58C182.53 525.27 173.02 563.26 162.31 605.38C157.063 626.02 151.183 647.79 144.67 670.69C135.9 701.5 125.38 731.81 109.7 759.69C106.42 765.523 101.813 772.507 95.88 780.64C92.3 785.54 86.65 789.82 83.99 794.98C76.94 808.65 93.68 813.15 102.92 816.34C137.673 828.347 174.91 840.767 214.63 853.6C248.903 864.68 326.03 889.22 446.01 927.22C450.99 928.8 458.69 931.437 469.11 935.13C476.503 937.75 482.623 936.12 487.47 930.24C491.91 924.847 497.057 918.117 502.91 910.05C513.17 895.91 521.18 881.63 529.65 864.96C537.72 849.06 545.1 834.1 550.06 820.05C557.4 799.217 564.23 777.21 570.55 754.03C570.712 753.457 571.302 753.122 571.87 753.28" fill="none" opacity="1" stroke="#a476db" stroke-linecap="butt" stroke-linejoin="miter" stroke-width="2"/>
<path d="M785.72 166.67C785.884 166.548 785.962 166.341 785.921 166.143C785.88 165.944 785.727 165.79 785.53 165.75C765.377 161.443 744.123 157.27 721.77 153.23C679.73 145.643 637.473 138.573 595 132.02C520.327 120.5 482.487 114.663 481.48 114.51C474.207 113.43 468.953 112.9 465.72 112.92C446.9 113.03 429.53 122.95 417.25 137.05C406.41 149.49 398.69 163.91 394.09 180.31C388.43 200.47 386.9 221.76 387.14 242.88C387.147 243.69 387.732 244.38 388.53 244.52L395.47 245.77C395.825 245.836 396.191 245.752 396.481 245.538C396.771 245.323 396.959 244.998 397 244.64C397.493 240.247 398.013 236.973 398.56 234.82C400.53 227.12 406.11 222.31 413.92 221.62C419.2 221.16 424.83 222.12 429.76 223C506.54 236.793 592.54 252.297 687.76 269.51C700.2 271.76 710 278.8 709.12 292.73C709.093 293.183 708.73 297.077 708.03 304.41C707.959 305.174 708.508 305.856 709.27 305.95L728.17 308.27C728.55 308.318 728.932 308.208 729.229 307.966C729.525 307.724 729.71 307.371 729.74 306.99C731.087 289.323 733.24 271.623 736.2 253.89C737.8 244.29 739.777 235.453 742.13 227.38C747.87 207.6 758.93 189.01 774.22 175.32C777.62 172.28 781.94 169.45 785.72 166.67" fill="none" opacity="1" stroke="#6e1fcc" stroke-linecap="butt" stroke-linejoin="miter" stroke-width="2"/>
<path d="M763.61 224.15L828.42 235.81C828.959 235.904 829.476 235.56 829.59 235.03C833.33 217.61 834.87 199.27 824.38 184.32C819.73 177.68 813.3 175.85 805.84 178.11C785.78 184.18 771.08 204.41 763.11 223.21C763.027 223.4 763.036 223.618 763.133 223.801C763.231 223.984 763.406 224.112 763.61 224.15" fill="none" opacity="1" stroke="#6e1fcc" stroke-linecap="butt" stroke-linejoin="miter" stroke-width="2"/>
<path d="M216.58 436.33C217.36 435.63 218.037 434.723 218.61 433.61C223.33 424.43 228.183 415.703 233.17 407.43C243.583 390.15 256.517 374.88 271.97 361.62C272.114 361.495 272.175 361.298 272.125 361.116C272.076 360.933 271.926 360.798 271.74 360.77C268.693 360.243 265.93 359.467 263.45 358.44C253.56 354.35 259.34 339.86 268.26 341.17C271.847 341.703 277.837 342.907 286.23 344.78C461.33 383.85 534.82 400.23 665.25 428.82C672.697 430.453 676.467 435.18 676.56 443C676.7 454.253 676.75 465.587 676.71 477C676.697 480.86 676.363 483.637 675.71 485.33C671.31 496.78 660.82 492.85 651.73 490.98C650.844 490.794 649.947 491.252 649.58 492.08C643.93 504.71 637.75 519.85 633.42 532.03C623.82 559.057 615.22 586.337 607.62 613.87C597.267 651.41 587.08 690.56 577.06 731.32C576.859 732.13 577.348 732.953 578.16 733.17C587.027 735.517 595.617 737.91 603.93 740.35C639.09 750.657 667.14 758.917 688.08 765.13C692.6 766.47 697.59 767.57 701.78 767.88C719.91 769.22 722.09 750.01 722.09 736.81C722.03 586.583 722.07 494.397 722.21 460.25C722.263 448.77 722.57 440.967 723.13 436.84C726.64 411.05 739.08 389.02 758.27 371.77C765.27 365.477 773.227 358.6 782.14 351.14C814.42 324.133 848.78 295.463 885.22 265.13C885.403 264.979 885.481 264.735 885.421 264.506C885.361 264.276 885.173 264.102 884.94 264.06L758.86 241.37C758.273 241.265 757.705 241.643 757.57 242.23C754.677 255.343 752.71 268.283 751.67 281.05C751.629 281.511 751.938 281.931 752.39 282.03C760.42 283.79 775.21 285.11 772.02 297.08C771.093 300.573 769.217 303.517 766.39 305.91C757.917 313.063 751.373 318.343 746.76 321.75C741.18 325.87 735.52 328.51 728.67 328.18C724.057 327.953 719.837 327.47 716.01 326.73C682.27 320.22 646.34 313.46 613.68 306.96C564.527 297.173 504.097 285.253 432.39 271.2C413.16 267.43 386.63 262.49 361.69 257.31C358.75 256.697 356.493 255.783 354.92 254.57C350.43 251.09 351.68 244.23 354.34 240.06C357.547 235.027 362.143 232.557 368.13 232.65C368.452 232.656 368.719 232.402 368.73 232.08C369.103 222.647 370.013 213.113 371.46 203.48C371.485 203.315 371.411 203.15 371.272 203.058C371.133 202.966 370.952 202.963 370.81 203.05C346.983 217.67 311.677 239.507 264.89 268.56C253.243 275.787 245.517 281.193 241.71 284.78C231.723 294.2 224.6 305.877 220.34 319.81C216.29 333.05 216.19 349.31 216.16 361.5C216.093 388.373 216.13 413.27 216.27 436.19C216.273 436.262 216.316 436.326 216.382 436.356C216.447 436.386 216.524 436.376 216.58 436.33" fill="none" opacity="1" stroke="#6e1fcc" stroke-linecap="butt" stroke-linejoin="miter" stroke-width="2"/>
<path d="M731.65 771.68C735.237 771.367 738.877 770.41 742.57 768.81C757.36 762.4 768.81 751.49 780.03 740.28C812.897 707.453 844.58 675.67 875.08 644.93C880.72 639.24 886.12 633.76 890.52 627.54C900.5 613.42 902.81 597.96 902.84 580C902.933 510.827 903.317 424.243 903.99 320.25C904.043 311.677 904.203 303.06 904.47 294.4C904.69 287.33 904.2 281.94 900.88 276.47C900.776 276.296 900.603 276.175 900.405 276.137C900.206 276.099 900.001 276.147 899.84 276.27C897.167 278.303 894.283 280.613 891.19 283.2C849.76 317.8 812.19 349.18 776.05 380.29C758.39 395.49 746.993 414.383 741.86 436.97C739.35 448.02 739.3 462.36 739.28 473.51C739.147 544.063 739.14 632.727 739.26 739.5C739.27 747.76 739.1 756.32 735.74 763.27C734.34 766.163 732.877 768.803 731.35 771.19C731.285 771.293 731.284 771.424 731.347 771.528C731.411 771.633 731.528 771.691 731.65 771.68" fill="none" opacity="1" stroke="#6e1fcc" stroke-linecap="butt" stroke-linejoin="miter" stroke-width="2"/>
<path d="M654.29 446.05C627.93 439.843 604.193 434.377 583.08 429.65C483.91 407.45 394.99 388 303.14 367.1C299.927 366.367 297.64 366.047 296.28 366.14C295.776 366.173 295.281 366.284 294.81 366.47C291.103 367.923 287.39 370.41 283.67 373.93C277.963 379.323 271.857 385.463 265.35 392.35C252.31 406.13 242.62 423.83 233.87 441.63C223.357 463.017 213.95 486.603 205.65 512.39C200.057 529.783 195.933 543.663 193.28 554.03C188.867 571.257 182.01 597.907 172.71 633.98C162.64 673.02 150.92 713.24 133.64 750.36C125.553 767.74 115.437 783.75 103.29 798.39C103.189 798.511 103.154 798.673 103.196 798.825C103.238 798.976 103.352 799.098 103.5 799.15C136.57 810.83 173.06 822.91 208.75 834.07C297.92 861.97 386.76 889.65 474.32 918.28C474.792 918.433 475.314 918.306 475.67 917.95C476.477 917.15 477.297 916.213 478.13 915.14C491.65 897.69 503.71 877.45 514.84 856.61C520.667 845.697 525.64 834.743 529.76 823.75C540.02 796.397 549.14 767.363 557.12 736.65C570.82 683.95 581.95 639.5 595.15 591.9C608.84 542.57 626.29 496.34 650.57 453.03C651.857 450.737 653.17 448.59 654.51 446.59C654.574 446.495 654.587 446.374 654.543 446.266C654.499 446.159 654.404 446.078 654.29 446.05" fill="none" opacity="1" stroke="#a476db" stroke-linecap="butt" stroke-linejoin="miter" stroke-width="2"/>
<path d="M725.29 376.05C724.437 375.59 723.503 375.257 722.49 375.05C692.177 368.857 654.2 360.887 608.56 351.14C522.18 332.68 452.53 318.017 399.61 307.15C357.477 298.497 315.51 289.727 273.71 280.84C267.85 279.6 260.95 280.11 259.45 287.36C257.74 295.66 263.76 297.38 271.02 298.92C293.1 303.613 314.627 308.127 335.6 312.46C416.313 329.14 469.797 340.243 496.05 345.77C503.363 347.31 514.863 349.807 530.55 353.26C543.517 356.12 555.013 358.603 565.04 360.71C601.827 368.443 652.563 379.207 717.25 393C722.56 394.13 726.01 388.54 726.61 383.96C726.93 381.547 726.82 379.33 726.28 377.31C726.134 376.774 725.777 376.319 725.29 376.05" fill="none" opacity="1" stroke="#6e1fcc" stroke-linecap="butt" stroke-linejoin="miter" stroke-width="2"/>
<path d="M321.89 496.75C321.163 504.417 320.327 512.96 319.38 522.38C317.95 536.59 317.26 553.23 316.46 564.9C316.3 567.2 317.24 568.33 319.37 568.87C329.657 571.49 335.153 572.89 335.86 573.07C340.21 574.17 343.04 575.52 345.56 571.3C352.38 559.867 369.25 531.743 396.17 486.93C399.697 481.063 403.17 475.11 406.59 469.07C407.17 468.057 407.623 466.697 407.95 464.99C408.36 462.86 406.04 462.07 404.7 461.75C398.247 460.223 391.793 458.757 385.34 457.35C384.883 457.254 384.406 457.328 384 457.56C382.84 458.227 381.797 459.333 380.87 460.88C368.65 481.387 357.077 501.283 346.15 520.57C346.058 520.749 345.85 520.835 345.659 520.773C345.467 520.711 345.349 520.519 345.38 520.32C348.473 493.213 351.16 471.1 353.44 453.98C353.753 451.6 352.64 450.147 350.1 449.62C344.753 448.507 338.363 447.153 330.93 445.56C328.68 445.08 326.79 445.18 325.56 447.12C319.067 457.36 306.21 477.51 286.99 507.57C286.929 507.664 286.811 507.704 286.706 507.666C286.601 507.627 286.536 507.521 286.55 507.41L294.81 440.31C294.951 439.145 294.185 438.064 293.04 437.81C288.04 436.71 281.34 435.41 272.94 433.91C270.4 433.46 268.29 432.81 267.55 435.32C266.657 438.313 265.913 442.3 265.32 447.28C261.56 478.867 257.82 513.303 254.1 550.59C253.974 551.846 254.646 553.045 255.78 553.59C256.473 553.93 257.487 554.287 258.82 554.66C264.607 556.293 271.077 557.997 278.23 559.77C280.39 560.31 281.84 559.993 282.58 558.82C298.22 534.173 311.22 513.45 321.58 496.65C321.623 496.588 321.701 496.562 321.772 496.585C321.844 496.608 321.892 496.675 321.89 496.75" fill="none" opacity="1" stroke="#a476db" stroke-linecap="butt" stroke-linejoin="miter" stroke-width="2"/>
<path d="M453.4 540.87C450.913 515.317 449.213 497.61 448.3 487.75C447.673 481.017 447.373 476.887 447.4 475.36C447.44 472.3 445.903 470.443 442.79 469.79C435.51 468.257 428.833 466.85 422.76 465.57C421.605 465.323 420.416 465.816 419.77 466.81C418.917 468.11 418.083 469.763 417.27 471.77C412.743 482.983 407.267 498.17 400.84 517.33C394.133 537.33 387.263 557.617 380.23 578.19C379.24 581.07 378.79 583.16 382.3 583.94C389.593 585.567 395.093 586.777 398.8 587.57C401.83 588.21 404.71 589.05 405.66 586.19C410.587 571.35 417.443 551.14 426.23 525.56C426.278 525.419 426.416 525.33 426.564 525.345C426.711 525.359 426.83 525.473 426.85 525.62C429.33 546.78 431.51 567.78 433.39 588.62C433.65 591.54 433.51 595.74 436.65 596.62C442.637 598.32 449.927 600.113 458.52 602C462.88 602.96 463.45 600.08 464.52 596.74C477.287 557.28 489.193 521.35 500.24 488.95C500.327 488.69 500.58 487.343 501 484.91C501.35 482.81 500.06 482.22 498.23 481.74C496.997 481.427 491.15 480.083 480.69 477.71C479.03 477.337 477.84 477.28 477.12 477.54C476.04 477.927 475.267 478.803 474.8 480.17C466.24 505.023 460.283 522.863 456.93 533.69C456.503 535.07 455.58 537.503 454.16 540.99C454.095 541.161 453.921 541.262 453.74 541.233C453.559 541.204 453.418 541.054 453.4 540.87" fill="none" opacity="1" stroke="#a476db" stroke-linecap="butt" stroke-linejoin="miter" stroke-width="2"/>
<path d="M522.47 512.79C522.812 512.88 523.102 513.107 523.272 513.417C523.442 513.727 523.478 514.093 523.37 514.43C512.403 549.083 503.827 576.483 497.64 596.63C496 601.957 494.963 605.777 494.53 608.09C494.315 609.268 495.031 610.413 496.18 610.73C502.38 612.443 508.493 614.16 514.52 615.88C517.727 616.8 519.833 615.61 520.84 612.31C530.01 582.2 540.23 549.37 550.14 520.54C550.238 520.244 550.492 520.028 550.8 519.98C551.807 519.827 552.97 519.897 554.29 520.19C559.09 521.25 563.973 522.41 568.94 523.67C569.328 523.774 569.741 523.742 570.11 523.58C571.123 523.147 571.813 522.413 572.18 521.38C573.507 517.633 575.487 511.643 578.12 503.41C578.482 502.287 578.005 501.065 576.98 500.49C576.02 499.95 574.463 499.423 572.31 498.91C547.87 493.11 528.597 488.55 514.49 485.23C512.303 484.71 510.773 485.533 509.9 487.7C507.793 492.947 505.763 498.317 503.81 503.81C503.357 505.083 503.153 505.977 503.2 506.49C503.283 507.541 504.111 508.431 505.24 508.68C511.853 510.14 517.597 511.51 522.47 512.79" fill="none" opacity="1" stroke="#a476db" stroke-linecap="butt" stroke-linejoin="miter" stroke-width="2"/>
<path d="M570.16 629.77C572.02 630.2 573.31 629.34 573.87 627.63C575.577 622.41 577.387 616.543 579.3 610.03C588.067 580.183 595.727 554.93 602.28 534.27C604.807 526.303 607.4 518.807 610.06 511.78C610.489 510.644 610.212 509.388 609.36 508.61C609 508.283 608.103 507.943 606.67 507.59C605.35 507.257 599.44 505.693 588.94 502.9C585.09 501.87 584.64 504.22 583.66 506.99C580.193 516.863 576.85 526.99 573.63 537.37C566.797 559.377 559.67 583.087 552.25 608.5C551.423 611.327 550.333 615.407 548.98 620.74C548.367 623.153 549.023 624.603 550.95 625.09C559.903 627.323 566.307 628.883 570.16 629.77" fill="none" opacity="1" stroke="#a476db" stroke-linecap="butt" stroke-linejoin="miter" stroke-width="2"/>
</g>
<path d="M1013.06-9.34709L1013.06 1014.65L-10.9426 1014.65L-10.9426-9.34709L1013.06-9.34709ZM560.927 743.933C596.507 753.733 633.437 764.923 667.927 775.253C695.467 783.513 722.567 787.583 747.827 771.903C759.987 764.353 770.147 754.853 780.417 744.513C820.704 704 852.884 671.583 876.957 647.263C882.437 641.723 887.817 635.973 891.797 630.373C899.804 619.12 904.894 606.453 907.067 592.373C907.887 587.046 908.364 580.806 908.497 573.653C909.157 536.793 908.907 500.073 909.387 463.903C910.177 404.563 909.857 335.183 910.197 290.103C910.277 279.583 909.767 272.333 908.667 268.353C903.707 250.423 889.947 240.323 872.277 236.693C860.317 234.24 848.344 232.013 836.357 230.013C836.157 229.978 835.978 229.866 835.861 229.7C835.745 229.535 835.7 229.33 835.737 229.133C837.577 219.073 838.457 209.423 838.377 200.183C838.291 190.643 836.431 181.683 832.797 173.303C826.131 157.936 814.241 147.763 797.127 142.783C787.114 139.87 776.671 137.396 765.797 135.363C684.437 120.153 592.877 106.163 513.007 93.7629C494.507 90.8896 479.794 88.9296 468.867 87.8829C461.221 87.1496 456.197 86.7396 453.797 86.6529C409.337 85.0629 377.897 127.793 366.317 165.463C365.807 167.133 364.797 168.863 363.397 169.733C308.011 204.353 266.834 230.263 239.867 247.463C233.121 251.77 227.934 255.42 224.307 258.413C208.927 271.1 198.391 287.393 192.697 307.293C188.747 321.103 188.147 335.233 188.117 349.403C188.011 411.896 187.994 448.146 188.067 458.153C188.114 464.186 187.227 469.88 185.407 475.233C171.587 515.923 162.077 553.913 151.367 596.033C146.121 616.673 140.241 638.443 133.727 661.343C124.957 692.153 114.437 722.463 98.7574 750.343C95.4774 756.176 90.8708 763.16 84.9374 771.293C81.3574 776.193 75.7074 780.473 73.0474 785.633C65.9974 799.303 82.7374 803.803 91.9774 806.993C126.731 819 163.967 831.42 203.687 844.253C237.961 855.333 315.087 879.873 435.067 917.873C440.047 919.453 447.747 922.09 458.167 925.783C465.561 928.403 471.681 926.773 476.527 920.893C480.967 915.5 486.114 908.77 491.967 900.703C502.227 886.563 510.237 872.283 518.707 855.613C526.777 839.713 534.157 824.753 539.117 810.703C546.457 789.87 553.287 767.863 559.607 744.683C559.769 744.11 560.359 743.774 560.927 743.933Z" fill="#f6e4fe" fill-rule="nonzero" opacity="0" stroke="none"/>
<path d="M571.87 753.28C571.302 753.122 570.712 753.457 570.55 754.03C564.23 777.21 557.4 799.217 550.06 820.05C545.1 834.1 537.72 849.06 529.65 864.96C521.18 881.63 513.17 895.91 502.91 910.05C497.057 918.117 491.91 924.847 487.47 930.24C482.623 936.12 476.503 937.75 469.11 935.13C458.69 931.437 450.99 928.8 446.01 927.22C326.03 889.22 248.903 864.68 214.63 853.6C174.91 840.767 137.673 828.347 102.92 816.34C93.68 813.15 76.94 808.65 83.99 794.98C86.65 789.82 92.3 785.54 95.88 780.64C101.813 772.507 106.42 765.523 109.7 759.69C125.38 731.81 135.9 701.5 144.67 670.69C151.183 647.79 157.063 626.02 162.31 605.38C173.02 563.26 182.53 525.27 196.35 484.58C198.17 479.227 199.057 473.533 199.01 467.5C198.937 457.493 198.953 421.243 199.06 358.75C199.09 344.58 199.69 330.45 203.64 316.64C209.333 296.74 219.87 280.447 235.25 267.76C238.877 264.767 244.063 261.117 250.81 256.81C277.777 239.61 318.953 213.7 374.34 179.08C375.74 178.21 376.75 176.48 377.26 174.81C388.84 137.14 420.28 94.41 464.74 96C467.14 96.0867 472.163 96.4967 479.81 97.23C490.737 98.2767 505.45 100.237 523.95 103.11C603.82 115.51 695.38 129.5 776.74 144.71C787.613 146.743 798.057 149.217 808.07 152.13C825.183 157.11 837.073 167.283 843.74 182.65C847.373 191.03 849.233 199.99 849.32 209.53C849.4 218.77 848.52 228.42 846.68 238.48C846.643 238.678 846.687 238.882 846.804 239.047C846.92 239.213 847.099 239.326 847.3 239.36C859.287 241.36 871.26 243.587 883.22 246.04C900.89 249.67 914.65 259.77 919.61 277.7C920.71 281.68 921.22 288.93 921.14 299.45C920.8 344.53 921.12 413.91 920.33 473.25C919.85 509.42 920.1 546.14 919.44 583C919.307 590.153 918.83 596.393 918.01 601.72C915.837 615.8 910.747 628.467 902.74 639.72C898.76 645.32 893.38 651.07 887.9 656.61C863.827 680.93 831.647 713.347 791.36 753.86C781.09 764.2 770.93 773.7 758.77 781.25C733.51 796.93 706.41 792.86 678.87 784.6C644.38 774.27 607.45 763.08 571.87 753.28ZM785.72 166.67C785.884 166.548 785.962 166.341 785.921 166.143C785.88 165.944 785.727 165.79 785.53 165.75C765.377 161.443 744.123 157.27 721.77 153.23C679.73 145.643 637.473 138.573 595 132.02C520.327 120.5 482.487 114.663 481.48 114.51C474.207 113.43 468.953 112.9 465.72 112.92C446.9 113.03 429.53 122.95 417.25 137.05C406.41 149.49 398.69 163.91 394.09 180.31C388.43 200.47 386.9 221.76 387.14 242.88C387.147 243.69 387.732 244.38 388.53 244.52L395.47 245.77C395.825 245.836 396.191 245.752 396.481 245.538C396.771 245.323 396.959 244.998 397 244.64C397.493 240.247 398.013 236.973 398.56 234.82C400.53 227.12 406.11 222.31 413.92 221.62C419.2 221.16 424.83 222.12 429.76 223C506.54 236.793 592.54 252.297 687.76 269.51C700.2 271.76 710 278.8 709.12 292.73C709.093 293.183 708.73 297.077 708.03 304.41C707.959 305.174 708.508 305.856 709.27 305.95L728.17 308.27C728.55 308.318 728.932 308.208 729.229 307.966C729.525 307.724 729.71 307.371 729.74 306.99C731.087 289.323 733.24 271.623 736.2 253.89C737.8 244.29 739.777 235.453 742.13 227.38C747.87 207.6 758.93 189.01 774.22 175.32C777.62 172.28 781.94 169.45 785.72 166.67ZM763.61 224.15L828.42 235.81C828.959 235.904 829.476 235.56 829.59 235.03C833.33 217.61 834.87 199.27 824.38 184.32C819.73 177.68 813.3 175.85 805.84 178.11C785.78 184.18 771.08 204.41 763.11 223.21C763.027 223.4 763.036 223.618 763.133 223.801C763.231 223.984 763.406 224.112 763.61 224.15ZM216.58 436.33C217.36 435.63 218.037 434.723 218.61 433.61C223.33 424.43 228.183 415.703 233.17 407.43C243.583 390.15 256.517 374.88 271.97 361.62C272.114 361.495 272.175 361.298 272.125 361.116C272.076 360.933 271.926 360.798 271.74 360.77C268.693 360.243 265.93 359.467 263.45 358.44C253.56 354.35 259.34 339.86 268.26 341.17C271.847 341.703 277.837 342.907 286.23 344.78C461.33 383.85 534.82 400.23 665.25 428.82C672.697 430.453 676.467 435.18 676.56 443C676.7 454.253 676.75 465.587 676.71 477C676.697 480.86 676.363 483.637 675.71 485.33C671.31 496.78 660.82 492.85 651.73 490.98C650.844 490.794 649.947 491.252 649.58 492.08C643.93 504.71 637.75 519.85 633.42 532.03C623.82 559.057 615.22 586.337 607.62 613.87C597.267 651.41 587.08 690.56 577.06 731.32C576.859 732.13 577.348 732.953 578.16 733.17C587.027 735.517 595.617 737.91 603.93 740.35C639.09 750.657 667.14 758.917 688.08 765.13C692.6 766.47 697.59 767.57 701.78 767.88C719.91 769.22 722.09 750.01 722.09 736.81C722.03 586.583 722.07 494.397 722.21 460.25C722.263 448.77 722.57 440.967 723.13 436.84C726.64 411.05 739.08 389.02 758.27 371.77C765.27 365.477 773.227 358.6 782.14 351.14C814.42 324.133 848.78 295.463 885.22 265.13C885.403 264.979 885.481 264.735 885.421 264.506C885.361 264.276 885.173 264.102 884.94 264.06L758.86 241.37C758.273 241.265 757.705 241.643 757.57 242.23C754.677 255.343 752.71 268.283 751.67 281.05C751.629 281.511 751.938 281.931 752.39 282.03C760.42 283.79 775.21 285.11 772.02 297.08C771.093 300.573 769.217 303.517 766.39 305.91C757.917 313.063 751.373 318.343 746.76 321.75C741.18 325.87 735.52 328.51 728.67 328.18C724.057 327.953 719.837 327.47 716.01 326.73C682.27 320.22 646.34 313.46 613.68 306.96C564.527 297.173 504.097 285.253 432.39 271.2C413.16 267.43 386.63 262.49 361.69 257.31C358.75 256.697 356.493 255.783 354.92 254.57C350.43 251.09 351.68 244.23 354.34 240.06C357.547 235.027 362.143 232.557 368.13 232.65C368.452 232.656 368.719 232.402 368.73 232.08C369.103 222.647 370.013 213.113 371.46 203.48C371.485 203.315 371.411 203.15 371.272 203.058C371.133 202.966 370.952 202.963 370.81 203.05C346.983 217.67 311.677 239.507 264.89 268.56C253.243 275.787 245.517 281.193 241.71 284.78C231.723 294.2 224.6 305.877 220.34 319.81C216.29 333.05 216.19 349.31 216.16 361.5C216.093 388.373 216.13 413.27 216.27 436.19C216.273 436.262 216.316 436.326 216.382 436.356C216.447 436.386 216.524 436.376 216.58 436.33ZM731.65 771.68C735.237 771.367 738.877 770.41 742.57 768.81C757.36 762.4 768.81 751.49 780.03 740.28C812.897 707.453 844.58 675.67 875.08 644.93C880.72 639.24 886.12 633.76 890.52 627.54C900.5 613.42 902.81 597.96 902.84 580C902.933 510.827 903.317 424.243 903.99 320.25C904.043 311.677 904.203 303.06 904.47 294.4C904.69 287.33 904.2 281.94 900.88 276.47C900.776 276.296 900.603 276.175 900.405 276.137C900.206 276.099 900.001 276.147 899.84 276.27C897.167 278.303 894.283 280.613 891.19 283.2C849.76 317.8 812.19 349.18 776.05 380.29C758.39 395.49 746.993 414.383 741.86 436.97C739.35 448.02 739.3 462.36 739.28 473.51C739.147 544.063 739.14 632.727 739.26 739.5C739.27 747.76 739.1 756.32 735.74 763.27C734.34 766.163 732.877 768.803 731.35 771.19C731.285 771.293 731.284 771.424 731.347 771.528C731.411 771.633 731.528 771.691 731.65 771.68ZM654.29 446.05C627.93 439.843 604.193 434.377 583.08 429.65C483.91 407.45 394.99 388 303.14 367.1C299.927 366.367 297.64 366.047 296.28 366.14C295.776 366.173 295.281 366.284 294.81 366.47C291.103 367.923 287.39 370.41 283.67 373.93C277.963 379.323 271.857 385.463 265.35 392.35C252.31 406.13 242.62 423.83 233.87 441.63C223.357 463.017 213.95 486.603 205.65 512.39C200.057 529.783 195.933 543.663 193.28 554.03C188.867 571.257 182.01 597.907 172.71 633.98C162.64 673.02 150.92 713.24 133.64 750.36C125.553 767.74 115.437 783.75 103.29 798.39C103.189 798.511 103.154 798.673 103.196 798.825C103.238 798.976 103.352 799.098 103.5 799.15C136.57 810.83 173.06 822.91 208.75 834.07C297.92 861.97 386.76 889.65 474.32 918.28C474.792 918.433 475.314 918.306 475.67 917.95C476.477 917.15 477.297 916.213 478.13 915.14C491.65 897.69 503.71 877.45 514.84 856.61C520.667 845.697 525.64 834.743 529.76 823.75C540.02 796.397 549.14 767.363 557.12 736.65C570.82 683.95 581.95 639.5 595.15 591.9C608.84 542.57 626.29 496.34 650.57 453.03C651.857 450.737 653.17 448.59 654.51 446.59C654.574 446.495 654.587 446.374 654.543 446.266C654.499 446.159 654.404 446.078 654.29 446.05Z" fill="#29055c" fill-rule="nonzero" opacity="1" stroke="none"/>
<path d="M785.72 166.67C781.94 169.45 777.62 172.28 774.22 175.32C758.93 189.01 747.87 207.6 742.13 227.38C739.777 235.453 737.8 244.29 736.2 253.89C733.24 271.623 731.087 289.323 729.74 306.99C729.71 307.371 729.525 307.724 729.229 307.966C728.932 308.208 728.55 308.318 728.17 308.27L709.27 305.95C708.508 305.856 707.959 305.174 708.03 304.41C708.73 297.077 709.093 293.183 709.12 292.73C710 278.8 700.2 271.76 687.76 269.51C592.54 252.297 506.54 236.793 429.76 223C424.83 222.12 419.2 221.16 413.92 221.62C406.11 222.31 400.53 227.12 398.56 234.82C398.013 236.973 397.493 240.247 397 244.64C396.959 244.998 396.771 245.323 396.481 245.538C396.191 245.752 395.825 245.836 395.47 245.77L388.53 244.52C387.732 244.38 387.147 243.69 387.14 242.88C386.9 221.76 388.43 200.47 394.09 180.31C398.69 163.91 406.41 149.49 417.25 137.05C429.53 122.95 446.9 113.03 465.72 112.92C468.953 112.9 474.207 113.43 481.48 114.51C482.487 114.663 520.327 120.5 595 132.02C637.473 138.573 679.73 145.643 721.77 153.23C744.123 157.27 765.377 161.443 785.53 165.75C785.727 165.79 785.88 165.944 785.921 166.143C785.962 166.341 785.884 166.548 785.72 166.67Z" fill="#8a36df" fill-rule="nonzero" opacity="1" stroke="none"/>
<path d="M763.61 224.15C763.406 224.112 763.231 223.984 763.133 223.801C763.036 223.618 763.027 223.4 763.11 223.21C771.08 204.41 785.78 184.18 805.84 178.11C813.3 175.85 819.73 177.68 824.38 184.32C834.87 199.27 833.33 217.61 829.59 235.03C829.476 235.56 828.959 235.904 828.42 235.81L763.61 224.15Z" fill="#8a36df" fill-rule="nonzero" opacity="1" stroke="none"/>
<path d="M216.58 436.33C216.524 436.376 216.447 436.386 216.382 436.356C216.316 436.326 216.273 436.262 216.27 436.19C216.13 413.27 216.093 388.373 216.16 361.5C216.19 349.31 216.29 333.05 220.34 319.81C224.6 305.877 231.723 294.2 241.71 284.78C245.517 281.193 253.243 275.787 264.89 268.56C311.677 239.507 346.983 217.67 370.81 203.05C370.952 202.963 371.133 202.966 371.272 203.058C371.411 203.15 371.485 203.315 371.46 203.48C370.013 213.113 369.103 222.647 368.73 232.08C368.719 232.402 368.452 232.656 368.13 232.65C362.143 232.557 357.547 235.027 354.34 240.06C351.68 244.23 350.43 251.09 354.92 254.57C356.493 255.783 358.75 256.697 361.69 257.31C386.63 262.49 413.16 267.43 432.39 271.2C504.097 285.253 564.527 297.173 613.68 306.96C646.34 313.46 682.27 320.22 716.01 326.73C719.837 327.47 724.057 327.953 728.67 328.18C735.52 328.51 741.18 325.87 746.76 321.75C751.373 318.343 757.917 313.063 766.39 305.91C769.217 303.517 771.093 300.573 772.02 297.08C775.21 285.11 760.42 283.79 752.39 282.03C751.938 281.931 751.629 281.511 751.67 281.05C752.71 268.283 754.677 255.343 757.57 242.23C757.705 241.643 758.273 241.265 758.86 241.37L884.94 264.06C885.173 264.102 885.361 264.276 885.421 264.506C885.481 264.735 885.403 264.979 885.22 265.13C848.78 295.463 814.42 324.133 782.14 351.14C773.227 358.6 765.27 365.477 758.27 371.77C739.08 389.02 726.64 411.05 723.13 436.84C722.57 440.967 722.263 448.77 722.21 460.25C722.07 494.397 722.03 586.583 722.09 736.81C722.09 750.01 719.91 769.22 701.78 767.88C697.59 767.57 692.6 766.47 688.08 765.13C667.14 758.917 639.09 750.657 603.93 740.35C595.617 737.91 587.027 735.517 578.16 733.17C577.348 732.953 576.859 732.13 577.06 731.32C587.08 690.56 597.267 651.41 607.62 613.87C615.22 586.337 623.82 559.057 633.42 532.03C637.75 519.85 643.93 504.71 649.58 492.08C649.947 491.252 650.844 490.794 651.73 490.98C660.82 492.85 671.31 496.78 675.71 485.33C676.363 483.637 676.697 480.86 676.71 477C676.75 465.587 676.7 454.253 676.56 443C676.467 435.18 672.697 430.453 665.25 428.82C534.82 400.23 461.33 383.85 286.23 344.78C277.837 342.907 271.847 341.703 268.26 341.17C259.34 339.86 253.56 354.35 263.45 358.44C265.93 359.467 268.693 360.243 271.74 360.77C271.926 360.798 272.076 360.933 272.125 361.116C272.175 361.298 272.114 361.495 271.97 361.62C256.517 374.88 243.583 390.15 233.17 407.43C228.183 415.703 223.33 424.43 218.61 433.61C218.037 434.723 217.36 435.63 216.58 436.33ZM725.29 376.05C724.437 375.59 723.503 375.257 722.49 375.05C692.177 368.857 654.2 360.887 608.56 351.14C522.18 332.68 452.53 318.017 399.61 307.15C357.477 298.497 315.51 289.727 273.71 280.84C267.85 279.6 260.95 280.11 259.45 287.36C257.74 295.66 263.76 297.38 271.02 298.92C293.1 303.613 314.627 308.127 335.6 312.46C416.313 329.14 469.797 340.243 496.05 345.77C503.363 347.31 514.863 349.807 530.55 353.26C543.517 356.12 555.013 358.603 565.04 360.71C601.827 368.443 652.563 379.207 717.25 393C722.56 394.13 726.01 388.54 726.61 383.96C726.93 381.547 726.82 379.33 726.28 377.31C726.134 376.774 725.777 376.319 725.29 376.05Z" fill="#8a36df" fill-rule="nonzero" opacity="1" stroke="none"/>
<path d="M731.65 771.68C731.528 771.691 731.411 771.633 731.347 771.528C731.284 771.424 731.285 771.293 731.35 771.19C732.877 768.803 734.34 766.163 735.74 763.27C739.1 756.32 739.27 747.76 739.26 739.5C739.14 632.727 739.147 544.063 739.28 473.51C739.3 462.36 739.35 448.02 741.86 436.97C746.993 414.383 758.39 395.49 776.05 380.29C812.19 349.18 849.76 317.8 891.19 283.2C894.283 280.613 897.167 278.303 899.84 276.27C900.001 276.147 900.206 276.099 900.405 276.137C900.603 276.175 900.776 276.296 900.88 276.47C904.2 281.94 904.69 287.33 904.47 294.4C904.203 303.06 904.043 311.677 903.99 320.25C903.317 424.243 902.933 510.827 902.84 580C902.81 597.96 900.5 613.42 890.52 627.54C886.12 633.76 880.72 639.24 875.08 644.93C844.58 675.67 812.897 707.453 780.03 740.28C768.81 751.49 757.36 762.4 742.57 768.81C738.877 770.41 735.237 771.367 731.65 771.68Z" fill="#8a36df" fill-rule="nonzero" opacity="1" stroke="none"/>
<path d="M725.29 376.05C725.777 376.319 726.134 376.774 726.28 377.31C726.82 379.33 726.93 381.547 726.61 383.96C726.01 388.54 722.56 394.13 717.25 393C652.563 379.207 601.827 368.443 565.04 360.71C555.013 358.603 543.517 356.12 530.55 353.26C514.863 349.807 503.363 347.31 496.05 345.77C469.797 340.243 416.313 329.14 335.6 312.46C314.627 308.127 293.1 303.613 271.02 298.92C263.76 297.38 257.74 295.66 259.45 287.36C260.95 280.11 267.85 279.6 273.71 280.84C315.51 289.727 357.477 298.497 399.61 307.15C452.53 318.017 522.18 332.68 608.56 351.14C654.2 360.887 692.177 368.857 722.49 375.05C723.503 375.257 724.437 375.59 725.29 376.05Z" fill="#29055c" fill-rule="nonzero" opacity="1" stroke="none"/>
<path d="M654.29 446.05C654.404 446.078 654.499 446.159 654.543 446.266C654.587 446.374 654.574 446.495 654.51 446.59C653.17 448.59 651.857 450.737 650.57 453.03C626.29 496.34 608.84 542.57 595.15 591.9C581.95 639.5 570.82 683.95 557.12 736.65C549.14 767.363 540.02 796.397 529.76 823.75C525.64 834.743 520.667 845.697 514.84 856.61C503.71 877.45 491.65 897.69 478.13 915.14C477.297 916.213 476.477 917.15 475.67 917.95C475.314 918.306 474.792 918.433 474.32 918.28C386.76 889.65 297.92 861.97 208.75 834.07C173.06 822.91 136.57 810.83 103.5 799.15C103.352 799.098 103.238 798.976 103.196 798.825C103.154 798.673 103.189 798.511 103.29 798.39C115.437 783.75 125.553 767.74 133.64 750.36C150.92 713.24 162.64 673.02 172.71 633.98C182.01 597.907 188.867 571.257 193.28 554.03C195.933 543.663 200.057 529.783 205.65 512.39C213.95 486.603 223.357 463.017 233.87 441.63C242.62 423.83 252.31 406.13 265.35 392.35C271.857 385.463 277.963 379.323 283.67 373.93C287.39 370.41 291.103 367.923 294.81 366.47C295.281 366.284 295.776 366.173 296.28 366.14C297.64 366.047 299.927 366.367 303.14 367.1C394.99 388 483.91 407.45 583.08 429.65C604.193 434.377 627.93 439.843 654.29 446.05Z" fill="#e9e6eb" fill-rule="nonzero" opacity="1" stroke="none"/>
<g opacity="1">
<path d="M475.571 595.163L489.959 536.417C489.978 536.337 489.931 536.257 489.853 536.238L468.182 530.93C468.085 530.907 468.027 530.808 468.051 530.709L472.404 512.936C472.426 512.846 472.516 512.792 472.605 512.814C488.275 516.654 500.439 519.631 509.099 521.745C517.334 523.751 525.977 525.49 534.621 525.095C534.656 525.093 534.69 525.106 534.716 525.13C534.741 525.155 534.756 525.189 534.757 525.225L535.036 543.819C535.038 543.927 534.955 544.018 534.847 544.026C526.648 544.64 518.504 543.37 510.61 541.3C510.564 541.288 510.515 541.295 510.474 541.32C510.433 541.345 510.404 541.386 510.392 541.433L495.976 600.293C495.961 600.352 495.901 600.389 495.842 600.374L475.746 595.452C475.618 595.421 475.539 595.291 475.571 595.163Z" fill="#222524" fill-rule="nonzero" opacity="1" stroke="none"/>
<path d="M313.853 473.928C317.062 474.712 320.222 475.486 323.334 476.25C323.419 476.272 323.479 476.348 323.477 476.435L322.766 528.745C322.768 528.78 322.793 528.81 322.827 528.818C322.861 528.826 322.896 528.812 322.914 528.781L346.694 482.103C346.734 482.026 346.823 481.986 346.91 482.007L368.359 487.26C368.404 487.271 368.441 487.303 368.459 487.346C368.478 487.389 368.475 487.438 368.451 487.479L327.215 558.835C327.147 558.953 327.009 559.013 326.877 558.98L306.121 553.896C306.036 553.876 305.973 553.8 305.967 553.709L304.102 514.032C304.1 514.014 304.092 513.999 304.082 513.995C304.073 513.992 304.066 513.991 304.059 513.989C304.05 513.987 304.042 513.985 304.035 513.983C304.024 513.983 304.011 513.992 304.001 514.007L284.038 548.349C283.991 548.427 283.901 548.465 283.815 548.444L263.056 543.377C262.924 543.345 262.829 543.229 262.823 543.092L259.157 460.76C259.155 460.713 259.175 460.668 259.211 460.639C259.247 460.609 259.295 460.598 259.34 460.609L280.794 465.842C280.88 465.863 280.941 465.94 280.941 466.028L280.504 518.412C280.506 518.447 280.531 518.477 280.565 518.485C280.599 518.493 280.634 518.478 280.652 518.448L304.154 471.71C304.194 471.634 304.281 471.595 304.366 471.615C307.479 472.373 310.642 473.144 313.853 473.928Z" fill="#222524" fill-rule="nonzero" opacity="1" stroke="none"/>
<path d="M421.769 545.555L432.185 503.028C432.2 502.969 432.26 502.932 432.319 502.947L452.503 507.89C452.603 507.915 452.664 508.016 452.64 508.116L433.802 585.029C433.783 585.107 433.706 585.156 433.629 585.137L413.894 580.303C413.8 580.28 413.724 580.21 413.693 580.118L397.696 533.512C397.685 533.475 397.65 533.45 397.61 533.452C397.571 533.454 397.536 533.482 397.526 533.521L387.678 573.729C387.659 573.807 387.58 573.855 387.502 573.836L367.356 568.901C367.27 568.88 367.218 568.794 367.239 568.709L386.097 491.715C386.108 491.667 386.157 491.637 386.205 491.649L405.951 496.485C406.068 496.514 406.162 496.601 406.198 496.717L421.622 545.562C421.631 545.595 421.663 545.618 421.698 545.616C421.733 545.615 421.763 545.59 421.769 545.555Z" fill="#222524" fill-rule="nonzero" opacity="1" stroke="none"/>
<path d="M556.509 533.36L576.581 538.276C576.657 538.295 576.704 538.372 576.685 538.448L557.835 615.411C557.817 615.488 557.74 615.534 557.664 615.516L537.591 610.6C537.515 610.581 537.469 610.504 537.487 610.428L556.337 533.464C556.356 533.388 556.433 533.341 556.509 533.36Z" fill="#222524" fill-rule="nonzero" opacity="1" stroke="none"/>
</g>
<g opacity="1">
<path d="M333.271 801.963C334.735 795.961 331.056 789.91 325.055 788.447C319.054 786.984 313.003 790.663 311.54 796.664C310.077 802.665 313.755 808.716 319.756 810.18C325.757 811.643 331.808 807.964 333.271 801.963" fill="#222524" fill-rule="nonzero" opacity="1" stroke="none"/>
<path d="M444.475 645.596L401.262 645.575L332.334 647.603L318.367 649.534L296.563 665.506L222.564 691.312C222.564 691.312 220.968 702.913 237.48 702.234C244.745 700.956 250.816 700.459 255.635 700.348L216.128 729.292C216.128 729.292 218.422 738.652 237.541 735.455C239.831 735.071 305.399 696.284 305.399 696.284L302.95 741.366L306.054 764.769C306.706 769.683 310.307 773.693 315.123 774.867L320.562 776.193L329.446 703.681C330.697 694.314 339.793 688.105 348.973 690.343C358.153 692.581 363.37 702.28 360.17 711.172L334.879 779.087L337.781 779.738C344.678 781.285 351.813 778.413 355.716 772.52L367.81 754.254L390.093 726.005L418.942 694.511L430.611 692.191L444.475 645.596Z" fill="#222524" fill-rule="nonzero" opacity="1" stroke="none"/>
<path d="M425.603 690.984L438.253 642.234L462.729 642.284L446.831 697.823L423.63 698.636L425.603 690.984Z" fill="#222524" fill-rule="nonzero" opacity="1" stroke="none"/>
</g>
</g>
</svg>
